<mxfile host="app.diagrams.net" modified="2024-03-08T14:48:33.290Z" agent="Mozilla/5.0 (Windows NT 10.0; Win64; x64) AppleWebKit/537.36 (KHTML, like Gecko) Chrome/122.0.0.0 Safari/537.36" version="24.0.2" etag="5QkH7i7MFWGC1XaX9Vu-" type="github">
  <diagram name="Pahina-1" id="CigoLOLT2Hs9_x91Gn8C">
    <mxGraphModel>
      <root>
        <mxCell id="0" />
        <mxCell id="1" parent="0" />
      </root>
    </mxGraphModel>
  </diagram>
</mxfile>
